<svg xmlns="http://www.w3.org/2000/svg" xmlns:xlink="http://www.w3.org/1999/xlink" width="1080" zoomAndPan="magnify" viewBox="0 0 810 809.999993" height="1080" preserveAspectRatio="xMidYMid meet" version="1.0"><defs><clipPath id="dc43b8cb0f"><path d="M 140.285156 97 L 769.5 97 L 769.5 718.105469 L 140.285156 718.105469 Z M 140.285156 97 " clip-rule="nonzero"/></clipPath><clipPath id="b34584cd56"><path d="M 40.5 469 L 184 469 L 184 613 L 40.5 613 Z M 40.5 469 " clip-rule="nonzero"/></clipPath></defs><g clip-path="url(#dc43b8cb0f)"><path fill="#f7cd3c" d="M 760.261719 266.015625 C 733.347656 311.3125 723.199219 364.445312 731.683594 415.625 C 734.503906 432.617188 738.011719 453.769531 739.746094 475 C 741.660156 498.464844 741.226562 519.421875 738.40625 539.070312 C 731.175781 589.421875 707.804688 633.75 666.945312 674.601562 C 638.058594 703.480469 602.566406 718.105469 561.414062 718.105469 C 560.453125 718.105469 559.488281 718.097656 558.519531 718.082031 C 525.53125 717.539062 488.65625 707.664062 448.921875 688.734375 C 417.363281 673.699219 383.898438 652.9375 349.457031 627.023438 C 292.796875 584.390625 251.859375 541.4375 248.929688 538.34375 L 170.179688 467.683594 C 161.472656 459.875 156.328125 449.140625 155.695312 437.460938 C 155.0625 425.78125 159.019531 414.554688 166.835938 405.851562 C 174.648438 397.144531 185.382812 392.003906 197.066406 391.375 C 208.6875 390.746094 219.867188 394.65625 228.558594 402.390625 L 314.152344 470.203125 C 314.695312 470.628906 315.253906 470.558594 315.539062 470.476562 C 315.824219 470.386719 316.335938 470.152344 316.5625 469.5 C 316.765625 468.90625 316.59375 468.257812 316.125 467.847656 C 312.773438 464.898438 305.105469 458.007812 286.582031 441.371094 C 263.273438 420.4375 224.261719 385.402344 155.417969 323.679688 C 146.710938 315.867188 141.570312 305.132812 140.9375 293.453125 C 140.300781 281.773438 144.261719 270.550781 152.074219 261.84375 C 159.890625 253.140625 170.628906 248 182.304688 247.367188 C 193.992188 246.734375 205.21875 250.6875 213.925781 258.5 L 341.660156 373.105469 C 336.8125 368.261719 330.457031 361.886719 322.019531 353.425781 C 298.605469 329.9375 259.417969 290.628906 192.328125 223.742188 C 175.246094 206.660156 175.246094 178.882812 192.320312 161.8125 C 200.59375 153.542969 211.59375 148.984375 223.292969 148.984375 C 234.992188 148.984375 245.988281 153.542969 254.261719 161.808594 C 323.757812 231.308594 362.828125 270.351562 386.171875 293.679688 C 400.226562 307.722656 407.964844 315.460938 412.085938 319.585938 C 412.691406 320.195312 413.402344 320.289062 413.773438 320.289062 C 414.144531 320.289062 414.855469 320.195312 415.464844 319.589844 C 416.3125 318.742188 416.398438 317.386719 415.667969 316.4375 L 300.824219 167.613281 C 293.679688 158.351562 290.566406 146.863281 292.0625 135.265625 C 293.558594 123.664062 299.484375 113.339844 308.75 106.199219 C 318.011719 99.050781 329.503906 95.945312 341.105469 97.4375 C 352.707031 98.9375 363.035156 104.859375 370.183594 114.121094 L 491.960938 271.933594 C 507.625 292.234375 527.488281 311.382812 546.453125 324.46875 C 568.109375 339.414062 587.003906 345.632812 601.085938 342.453125 C 615.011719 339.308594 624.492188 326.539062 629.261719 304.492188 C 635.460938 275.859375 648.753906 251.839844 668.765625 233.09375 C 685.621094 217.316406 703.769531 208.625 716.035156 204.113281 C 730.621094 198.742188 746.730469 201.757812 758.070312 211.984375 C 764.59375 217.867188 768.382812 224.992188 769.335938 233.167969 C 770.464844 242.929688 767.417969 253.980469 760.261719 266.015625 " fill-opacity="1" fill-rule="nonzero"/><path fill="#d19119" d="M 751.117188 260.585938 C 722.921875 308.035156 712.292969 363.714844 721.191406 417.363281 C 727.207031 453.625 734.023438 494.722656 727.875 537.554688 C 720.988281 585.554688 698.601562 627.917969 659.425781 667.082031 C 645.171875 681.332031 629.082031 691.941406 611.601562 698.617188 C 595.429688 704.789062 577.636719 707.757812 558.707031 707.449219 C 527.277344 706.933594 491.90625 697.421875 453.582031 679.179688 C 422.683594 664.46875 389.851562 644.09375 355.996094 618.632812 C 298.167969 575.148438 256.9375 531.335938 256.53125 530.898438 L 256.371094 530.726562 L 177.28125 459.769531 C 170.691406 453.855469 166.796875 445.730469 166.316406 436.882812 C 165.839844 428.042969 168.835938 419.542969 174.75 412.953125 C 180.667969 406.359375 188.796875 402.464844 197.644531 401.992188 C 198.253906 401.957031 198.863281 401.941406 199.476562 401.941406 C 207.65625 401.941406 215.445312 404.914062 221.582031 410.421875 L 221.699219 410.53125 L 307.542969 478.539062 C 310.636719 480.984375 314.738281 481.785156 318.523438 480.679688 C 322.304688 479.578125 325.335938 476.6875 326.617188 472.964844 C 328.230469 468.28125 326.871094 463.140625 323.15625 459.867188 C 319.84375 456.949219 312.1875 450.074219 293.691406 433.460938 C 270.382812 412.527344 231.367188 377.492188 162.523438 315.765625 C 155.929688 309.851562 152.035156 301.722656 151.558594 292.878906 C 151.078125 284.039062 154.074219 275.535156 159.988281 268.945312 C 165.910156 262.355469 174.035156 258.460938 182.882812 257.984375 C 191.722656 257.507812 200.226562 260.5 206.820312 266.414062 L 350.574219 395.386719 C 352.816406 397.402344 355.816406 398.316406 358.804688 397.902344 C 361.792969 397.480469 364.425781 395.777344 366.03125 393.222656 C 368.707031 388.964844 367.84375 383.300781 364.027344 380.039062 C 360.96875 377.425781 353.683594 370.121094 329.554688 345.914062 C 306.136719 322.425781 266.941406 283.109375 199.84375 216.21875 C 186.914062 203.289062 186.914062 182.257812 199.84375 169.328125 C 206.109375 163.066406 214.4375 159.617188 223.292969 159.617188 C 232.152344 159.617188 240.480469 163.066406 246.742188 169.328125 C 316.234375 238.824219 355.308594 277.871094 378.652344 301.199219 C 392.699219 315.242188 400.441406 322.972656 404.550781 327.09375 C 407.011719 329.5625 410.28125 330.917969 413.765625 330.921875 L 413.773438 330.921875 C 417.253906 330.921875 420.527344 329.566406 422.988281 327.105469 C 427.605469 322.492188 428.078125 315.109375 424.089844 309.941406 L 309.246094 161.117188 C 303.835938 154.105469 301.476562 145.40625 302.613281 136.625 C 303.746094 127.839844 308.234375 120.023438 315.246094 114.617188 C 322.257812 109.207031 330.957031 106.851562 339.746094 107.984375 C 348.53125 109.113281 356.347656 113.601562 361.757812 120.613281 L 483.542969 278.429688 C 499.847656 299.566406 520.578125 319.535156 540.414062 333.222656 C 554.75 343.117188 574.703125 353.886719 593.609375 353.882812 C 596.929688 353.882812 600.214844 353.550781 603.429688 352.824219 C 612.332031 350.816406 619.910156 345.992188 625.945312 338.484375 C 632.160156 330.765625 636.773438 320.082031 639.660156 306.742188 C 645.390625 280.261719 657.632812 258.09375 676.039062 240.859375 C 691.585938 226.296875 708.371094 218.265625 719.707031 214.089844 C 723.285156 212.773438 726.984375 212.132812 730.632812 212.132812 C 738.070312 212.132812 745.3125 214.800781 750.949219 219.882812 C 755.492188 223.980469 758.125 228.863281 758.765625 234.394531 C 759.625 241.789062 757.050781 250.597656 751.117188 260.585938 Z M 769.335938 233.167969 C 768.382812 224.992188 764.59375 217.867188 758.070312 211.984375 C 746.730469 201.757812 730.621094 198.742188 716.035156 204.113281 C 703.769531 208.625 685.621094 217.316406 668.765625 233.09375 C 648.753906 251.839844 635.460938 275.859375 629.261719 304.492188 C 624.492188 326.539062 615.011719 339.308594 601.085938 342.453125 C 587.003906 345.632812 568.109375 339.414062 546.453125 324.46875 C 527.488281 311.382812 507.625 292.234375 491.960938 271.933594 L 370.183594 114.121094 C 363.035156 104.859375 352.707031 98.9375 341.105469 97.4375 C 329.503906 95.945312 318.011719 99.050781 308.75 106.199219 C 299.484375 113.339844 293.558594 123.664062 292.0625 135.265625 C 290.566406 146.863281 293.679688 158.351562 300.824219 167.613281 L 415.667969 316.4375 C 416.398438 317.386719 416.3125 318.742188 415.464844 319.589844 C 414.855469 320.195312 414.144531 320.289062 413.773438 320.289062 C 413.402344 320.289062 412.691406 320.195312 412.085938 319.585938 C 407.964844 315.460938 400.226562 307.722656 386.171875 293.679688 C 362.828125 270.351562 323.757812 231.308594 254.261719 161.808594 C 245.988281 153.542969 234.992188 148.984375 223.292969 148.984375 C 211.59375 148.984375 200.59375 153.542969 192.320312 161.8125 C 175.246094 178.882812 175.246094 206.660156 192.328125 223.742188 C 259.417969 290.628906 298.605469 329.9375 322.019531 353.425781 C 330.457031 361.886719 336.8125 368.261719 341.660156 373.105469 L 213.925781 258.5 C 205.21875 250.6875 193.992188 246.734375 182.304688 247.367188 C 170.628906 248 159.890625 253.140625 152.074219 261.84375 C 144.261719 270.550781 140.300781 281.773438 140.9375 293.453125 C 141.570312 305.132812 146.710938 315.867188 155.417969 323.679688 C 224.261719 385.402344 263.273438 420.4375 286.582031 441.371094 C 305.105469 458.007812 312.773438 464.898438 316.125 467.847656 C 316.59375 468.257812 316.765625 468.90625 316.5625 469.5 C 316.335938 470.152344 315.824219 470.386719 315.539062 470.476562 C 315.253906 470.558594 314.695312 470.628906 314.152344 470.203125 L 228.558594 402.390625 C 219.867188 394.65625 208.6875 390.746094 197.066406 391.375 C 185.382812 392.003906 174.648438 397.144531 166.835938 405.851562 C 159.019531 414.554688 155.0625 425.78125 155.695312 437.460938 C 156.328125 449.140625 161.472656 459.875 170.179688 467.683594 L 248.929688 538.34375 C 251.859375 541.4375 292.796875 584.390625 349.457031 627.023438 C 383.898438 652.9375 417.363281 673.699219 448.921875 688.734375 C 488.65625 707.664062 525.53125 717.539062 558.519531 718.082031 C 559.488281 718.097656 560.453125 718.105469 561.414062 718.105469 C 602.566406 718.105469 638.058594 703.480469 666.945312 674.601562 C 707.804688 633.75 731.175781 589.421875 738.40625 539.070312 C 741.226562 519.421875 741.660156 498.464844 739.746094 475 C 738.011719 453.769531 734.503906 432.617188 731.683594 415.625 C 723.199219 364.445312 733.347656 311.3125 760.261719 266.015625 C 767.417969 253.980469 770.464844 242.929688 769.335938 233.167969 " fill-opacity="1" fill-rule="nonzero"/></g><path fill="#5398ff" d="M 585.523438 203.636719 C 582.167969 203.636719 579.28125 201.097656 578.921875 197.6875 C 577.230469 181.636719 572.863281 166.210938 565.945312 151.832031 C 559.203125 137.828125 550.214844 125.152344 539.222656 114.164062 C 528.230469 103.175781 515.554688 94.1875 501.546875 87.449219 C 487.160156 80.53125 471.730469 76.167969 455.679688 74.472656 C 452.027344 74.089844 449.382812 70.820312 449.765625 67.167969 C 450.152344 63.515625 453.425781 60.867188 457.074219 61.257812 C 474.648438 63.109375 491.550781 67.890625 507.308594 75.472656 C 522.667969 82.859375 536.570312 92.714844 548.625 104.765625 C 560.675781 116.816406 570.535156 130.714844 577.925781 146.070312 C 585.507812 161.824219 590.292969 178.722656 592.144531 196.292969 C 592.527344 199.941406 589.882812 203.214844 586.230469 203.597656 C 585.992188 203.625 585.757812 203.636719 585.523438 203.636719 " fill-opacity="1" fill-rule="nonzero"/><path fill="#5398ff" d="M 531.460938 208.609375 C 528.121094 208.609375 525.25 206.105469 524.863281 202.714844 C 522.644531 183.273438 514.367188 165.894531 500.925781 152.453125 C 487.480469 139.011719 470.097656 130.738281 450.648438 128.523438 C 447.003906 128.105469 444.382812 124.808594 444.800781 121.164062 C 445.214844 117.519531 448.507812 114.894531 452.15625 115.3125 C 463.398438 116.59375 474.15625 119.679688 484.132812 124.484375 C 493.890625 129.183594 502.703125 135.433594 510.328125 143.050781 C 517.945312 150.671875 524.195312 159.484375 528.898438 169.242188 C 533.707031 179.214844 536.789062 189.96875 538.070312 201.210938 C 538.488281 204.855469 535.867188 208.148438 532.222656 208.5625 C 531.964844 208.59375 531.710938 208.609375 531.460938 208.609375 " fill-opacity="1" fill-rule="nonzero"/><g clip-path="url(#b34584cd56)"><path fill="#5398ff" d="M 176.695312 612.378906 C 176.460938 612.378906 176.226562 612.367188 175.988281 612.34375 C 158.417969 610.488281 141.515625 605.710938 125.757812 598.128906 C 110.394531 590.738281 96.496094 580.882812 84.4375 568.832031 C 72.386719 556.78125 62.527344 542.882812 55.136719 527.527344 C 47.554688 511.773438 42.773438 494.875 40.917969 477.308594 C 40.535156 473.65625 43.183594 470.386719 46.832031 470 C 50.484375 469.617188 53.753906 472.261719 54.140625 475.914062 C 55.835938 491.960938 60.203125 507.390625 67.117188 521.765625 C 73.855469 535.773438 82.851562 548.445312 93.84375 559.433594 C 104.832031 570.421875 117.511719 579.414062 131.519531 586.148438 C 145.902344 593.066406 161.332031 597.433594 177.382812 599.125 C 181.035156 599.511719 183.683594 602.78125 183.296875 606.429688 C 182.941406 609.84375 180.054688 612.378906 176.695312 612.378906 " fill-opacity="1" fill-rule="nonzero"/></g><path fill="#5398ff" d="M 181.667969 558.328125 C 181.417969 558.328125 181.164062 558.3125 180.910156 558.285156 C 169.667969 557.003906 158.90625 553.917969 148.929688 549.113281 C 139.171875 544.410156 130.359375 538.164062 122.738281 530.546875 C 115.117188 522.925781 108.867188 514.117188 104.164062 504.359375 C 99.359375 494.382812 96.273438 483.628906 94.992188 472.390625 C 94.578125 468.742188 97.195312 465.449219 100.84375 465.035156 C 104.492188 464.617188 107.785156 467.238281 108.203125 470.882812 C 110.417969 490.328125 118.695312 507.707031 132.140625 521.144531 C 145.582031 534.585938 162.964844 542.859375 182.414062 545.078125 C 186.0625 545.496094 188.683594 548.789062 188.265625 552.433594 C 187.878906 555.828125 185.003906 558.328125 181.667969 558.328125 " fill-opacity="1" fill-rule="nonzero"/></svg>